HIERARCHY
ROOT Hips
{
	OFFSET -0.001795 -0.223333 0.028219
	CHANNELS 6 Xposition Yposition Zposition Zrotation Yrotation Xrotation 
	JOINT LeftUpLeg
	{
		OFFSET 0.069520 -0.091406 -0.006815
		CHANNELS 3 Zrotation Yrotation Xrotation
		JOINT LeftLeg
		{
			OFFSET 0.034277 -0.375199 -0.004496
			CHANNELS 3 Zrotation Yrotation Xrotation
			JOINT LeftFoot
			{
				OFFSET -0.013596 -0.397961 -0.043693
				CHANNELS 3 Zrotation Yrotation Xrotation
				JOINT LeftToe
				{
					OFFSET 0.026358 -0.055791 0.119288
					CHANNELS 3 Zrotation Yrotation Xrotation
					End Site
					{
						OFFSET 0.000000 0.000000 0.000000
					}
				}
			}
		}
	}
	JOINT RightUpLeg
	{
		OFFSET -0.067670 -0.090522 -0.004320
		CHANNELS 3 Zrotation Yrotation Xrotation
		JOINT RightLeg
		{
			OFFSET -0.038290 -0.382569 -0.008850
			CHANNELS 3 Zrotation Yrotation Xrotation
			JOINT RightFoot
			{
				OFFSET 0.015774 -0.398415 -0.042312
				CHANNELS 3 Zrotation Yrotation Xrotation
				JOINT RightToe
				{
					OFFSET -0.025372 -0.048144 0.123348
					CHANNELS 3 Zrotation Yrotation Xrotation
					End Site
					{
						OFFSET 0.000000 0.000000 0.000000
					}
				}
			}
		}
	}
	JOINT Spine
	{
		OFFSET -0.002533 0.108963 -0.026696
		CHANNELS 3 Zrotation Yrotation Xrotation
		JOINT Spine1
		{
			OFFSET 0.005487 0.135180 0.001092
			CHANNELS 3 Zrotation Yrotation Xrotation
			JOINT Spine2
			{
				OFFSET 0.001457 0.052922 0.025425
				CHANNELS 3 Zrotation Yrotation Xrotation
				JOINT Neck
				{
					OFFSET -0.002778 0.213870 -0.042857
					CHANNELS 3 Zrotation Yrotation Xrotation
					JOINT Head
					{
						OFFSET 0.005152 0.064970 0.051349
						CHANNELS 3 Zrotation Yrotation Xrotation
						End Site
						{
							OFFSET 0.000000 0.000000 0.000000
						}
					}
				}
				JOINT LeftShoulder
				{
					OFFSET 0.078845 0.121749 -0.034090
					CHANNELS 3 Zrotation Yrotation Xrotation
					JOINT LeftArm
					{
						OFFSET 0.090977 0.030469 -0.008868
						CHANNELS 3 Zrotation Yrotation Xrotation
						JOINT LeftForeArm
						{
							OFFSET 0.259612 -0.012772 -0.027456
							CHANNELS 3 Zrotation Yrotation Xrotation
							JOINT LeftHand
							{
								OFFSET 0.249234 0.008986 -0.001171
								CHANNELS 3 Zrotation Yrotation Xrotation
								End Site
								{
									OFFSET 0.000000 0.000000 0.000000
								}
							}
						}
					}
				}
				JOINT RightShoulder
				{
					OFFSET -0.081759 0.118833 -0.038615
					CHANNELS 3 Zrotation Yrotation Xrotation
					JOINT RightArm
					{
						OFFSET -0.096012 0.032551 -0.009143
						CHANNELS 3 Zrotation Yrotation Xrotation
						JOINT RightForeArm
						{
							OFFSET -0.253742 -0.013329 -0.021401
							CHANNELS 3 Zrotation Yrotation Xrotation
							JOINT RightHand
							{
								OFFSET -0.255298 0.007772 -0.005559
								CHANNELS 3 Zrotation Yrotation Xrotation
								End Site
								{
									OFFSET 0.000000 0.000000 0.000000
								}
							}
						}
					}
				}
			}
		}
	}
}
MOTION
Frames: 7
Frame Time: 0.050000
0.070133 0.965835 -0.048761 4.616139 -8.415286 18.402806 3.391866 -1.209678 -22.748282 -2.186194 0.267248 -0.391372 -13.205053 -12.585385 22.247446 0.000000 0.000000 0.000000 -13.857162 1.012518 -22.747312 7.183118 -0.600106 1.338894 -20.108227 -34.432369 33.824079 0.000000 0.000000 0.000000 10.187546 -4.771506 40.181166 -0.418134 0.466026 -21.228663 1.696849 12.121527 31.884254 20.775572 -6.512995 -36.318080 0.000000 0.000000 0.000000 6.408663 -25.345668 7.798665 -53.520606 -61.397882 20.155574 120.012365 -72.239990 -95.080306 0.000000 0.000000 0.000000 4.468447 8.735305 4.144641 40.409732 51.164710 11.961441 -63.056216 40.145453 -17.831134 0.000000 0.000000 0.000000 
0.067200 0.965133 -0.048618 4.206274 -8.275439 18.155105 3.844302 -1.124242 -22.292690 -2.569558 0.312563 -0.392548 -11.922132 -11.220894 21.366037 0.000000 0.000000 0.000000 -12.822093 1.094221 -21.964256 6.867840 -0.566403 0.949165 -19.964142 -34.548917 32.397925 0.000000 0.000000 0.000000 9.460035 -4.494085 40.364166 -0.458218 0.487042 -21.541785 2.494931 13.000562 31.450356 20.170414 -6.038046 -36.406529 0.000000 0.000000 0.000000 4.342215 -24.478237 7.827242 -52.255821 -58.882646 17.742338 116.126198 -74.229064 -93.656450 0.000000 0.000000 0.000000 5.259208 9.781622 4.782094 41.510572 54.184704 14.014099 -60.118721 41.295440 -17.305696 0.000000 0.000000 0.000000 
0.063862 0.964873 -0.048420 4.141380 -7.684780 18.097033 3.892534 -1.144737 -22.399097 -2.526111 0.299983 0.163289 -11.322319 -10.722326 20.513388 0.000000 0.000000 0.000000 -12.450356 1.085012 -21.749609 7.173704 -0.603241 0.970899 -20.909901 -35.492990 32.383961 0.000000 0.000000 0.000000 8.698644 -4.263328 40.312293 -0.411130 0.499266 -21.813716 2.883482 13.873573 31.085480 20.140941 -5.699814 -37.005682 0.000000 0.000000 0.000000 3.344354 -24.376371 7.887021 -51.053709 -57.147745 15.916164 107.268430 -76.215151 -87.244527 0.000000 0.000000 0.000000 4.716967 10.989817 5.297655 41.859540 56.955944 15.859698 -56.038815 40.883512 -15.590965 0.000000 0.000000 0.000000 
0.060338 0.964779 -0.047873 4.049937 -7.159988 17.818821 3.928991 -1.148091 -21.935314 -2.599095 0.310102 -0.307673 -10.731370 -9.585752 20.897552 0.000000 0.000000 0.000000 -11.810466 1.097682 -21.192118 6.890373 -0.591640 1.188248 -20.802584 -35.560288 31.345446 0.000000 0.000000 0.000000 8.135721 -4.153651 40.945962 -0.269719 0.489049 -22.254492 2.788765 14.513427 30.310623 20.844117 -6.095730 -36.194995 0.000000 0.000000 0.000000 1.695041 -23.862603 7.850055 -49.928167 -55.645545 14.500912 93.082644 -78.449274 -76.015600 0.000000 0.000000 0.000000 4.289128 12.523807 5.949071 41.653672 60.331884 17.743959 -51.936998 37.787790 -12.838625 0.000000 0.000000 0.000000 
0.056767 0.964773 -0.047136 4.278259 -6.059667 17.719829 3.741121 -1.226391 -21.833283 -2.422345 0.284792 -0.379095 -10.974253 -9.757165 20.933136 0.000000 0.000000 0.000000 -11.558016 1.037818 -20.507232 6.495994 -0.566452 0.657672 -21.453377 -36.002066 31.956515 0.000000 0.000000 0.000000 7.877445 -4.258794 41.274873 -0.956221 0.674824 -22.872039 3.095577 14.684884 30.022907 21.091197 -6.125430 -36.159650 0.000000 0.000000 0.000000 0.477668 -24.836927 8.238494 -49.030669 -55.055326 13.764582 76.848341 -79.302648 -61.797158 0.000000 0.000000 0.000000 3.578570 13.253228 6.162213 41.218134 62.467098 18.876599 -47.951795 34.644479 -10.456921 0.000000 0.000000 0.000000 
0.053175 0.964690 -0.046470 4.004917 -5.410932 17.451488 4.129486 -1.179878 -21.487505 -2.157414 0.257292 -0.754069 -11.485518 -9.991055 21.719936 0.000000 0.000000 0.000000 -10.920303 1.044707 -19.854123 6.593708 -0.586165 0.727666 -21.413607 -36.116693 31.041401 0.000000 0.000000 0.000000 7.589847 -4.247472 41.350498 -0.919758 0.680220 -23.085174 2.575527 15.296343 28.968261 21.751393 -6.363134 -35.933523 0.000000 0.000000 0.000000 -1.538710 -26.212775 8.811717 -47.899560 -53.962309 12.850048 58.895534 -78.870994 -45.688584 0.000000 0.000000 0.000000 4.151258 14.930624 7.077094 36.533469 63.765173 16.861139 -43.742251 29.850476 -7.884580 0.000000 0.000000 0.000000 
0.049549 0.964435 -0.046126 3.964220 -4.813478 17.057121 4.329814 -1.166914 -21.272123 -2.317992 0.270207 -0.569796 -11.317681 -9.547589 21.925084 0.000000 0.000000 0.000000 -10.675812 1.012529 -19.053853 6.993243 -0.636422 0.865254 -21.168796 -36.158100 29.528075 0.000000 0.000000 0.000000 7.422270 -4.283969 41.540293 -2.209573 0.981702 -23.962274 2.696959 14.816609 29.003058 21.598040 -6.190180 -36.437719 0.000000 0.000000 0.000000 -2.815190 -27.338215 9.352761 -47.508184 -53.588166 12.684272 49.134414 -77.461123 -36.277812 0.000000 0.000000 0.000000 3.923679 15.707782 7.316431 34.396074 64.585327 15.930424 -41.234032 27.105941 -6.600404 0.000000 0.000000 0.000000 
